<?xml version="1.0" encoding="iso-8859-1"?>
<!-- Generator: Adobe Illustrator 19.0.0, SVG Export Plug-In . SVG Version: 6.00 Build 0)  -->
<svg version="1.1" id="Layer_1" xmlns="http://www.w3.org/2000/svg" xmlns:xlink="http://www.w3.org/1999/xlink" x="0px" y="0px"
	 viewBox="0 0 512 512" style="enable-background:new 0 0 512 512;" xml:space="preserve">
<path style="fill:#707384;" d="M361.931,0H150.069c-14.626,0-26.483,11.857-26.483,26.483v459.034
	c0,14.626,11.857,26.483,26.483,26.483h211.862c14.626,0,26.483-11.857,26.483-26.483V26.483C388.414,11.857,376.557,0,361.931,0z
	 M229.517,26.483h52.966c4.875,0,8.828,3.953,8.828,8.828s-3.953,8.828-8.828,8.828h-52.966c-4.875,0-8.828-3.953-8.828-8.828
	S224.642,26.483,229.517,26.483z M194.207,26.483c4.875,0,8.828,3.953,8.828,8.828s-3.953,8.828-8.828,8.828
	s-8.828-3.953-8.828-8.828S189.332,26.483,194.207,26.483z M256,494.345c-9.751,0-17.655-7.905-17.655-17.655
	c0-9.75,7.904-17.655,17.655-17.655c9.751,0,17.655,7.905,17.655,17.655C273.655,486.44,265.751,494.345,256,494.345z
	 M370.759,441.379H141.241V70.621h229.517V441.379z"/>
<path style="fill:#FFFFFF;" d="M141.241,441.379h229.517V70.621H141.241V441.379z M229.517,423.724
	c-9.751,0-17.655-7.905-17.655-17.655s7.904-17.655,17.655-17.655s17.655,7.905,17.655,17.655S239.268,423.724,229.517,423.724z
	 M353.103,406.069c0,9.75-7.904,17.655-17.655,17.655s-17.655-7.905-17.655-17.655s7.904-17.655,17.655-17.655
	S353.103,396.319,353.103,406.069z M273.655,105.931h61.793c4.875,0,8.828,3.953,8.828,8.828c0,4.875-3.953,8.828-8.828,8.828
	h-61.793c-4.875,0-8.828-3.953-8.828-8.828C264.828,109.884,268.78,105.931,273.655,105.931z M264.828,150.069
	c0-4.875,3.953-8.828,8.828-8.828h35.31c4.875,0,8.828,3.953,8.828,8.828l0,0c0,4.875-3.953,8.828-8.828,8.828h-35.31
	C268.78,158.897,264.828,154.944,264.828,150.069L264.828,150.069z M264.828,211.862c0-4.875,3.953-8.828,8.828-8.828h61.793
	c4.875,0,8.828,3.953,8.828,8.828l0,0c0,4.875-3.953,8.828-8.828,8.828h-61.793C268.78,220.69,264.828,216.737,264.828,211.862
	L264.828,211.862z M273.655,238.345h35.31c4.875,0,8.828,3.953,8.828,8.828S313.841,256,308.966,256h-35.31
	c-4.875,0-8.828-3.953-8.828-8.828S268.78,238.345,273.655,238.345z M273.655,300.138h61.793c4.875,0,8.828,3.953,8.828,8.828
	s-3.953,8.828-8.828,8.828h-61.793c-4.875,0-8.828-3.953-8.828-8.828S268.78,300.138,273.655,300.138z M264.828,344.276
	c0-4.875,3.953-8.828,8.828-8.828h35.31c4.875,0,8.828,3.953,8.828,8.828l0,0c0,4.875-3.953,8.828-8.828,8.828h-35.31
	C268.78,353.103,264.828,349.151,264.828,344.276L264.828,344.276z M282.483,388.414c9.751,0,17.655,7.905,17.655,17.655
	s-7.904,17.655-17.655,17.655s-17.655-7.905-17.655-17.655S272.732,388.414,282.483,388.414z M167.724,105.931
	c0-4.875,3.953-8.828,8.828-8.828h61.793c4.875,0,8.828,3.953,8.828,8.828v52.966c0,4.875-3.953,8.828-8.828,8.828h-61.793
	c-4.875,0-8.828-3.953-8.828-8.828V105.931z M167.724,203.034c0-4.875,3.953-8.828,8.828-8.828h61.793
	c4.875,0,8.828,3.953,8.828,8.828V256c0,4.875-3.953,8.828-8.828,8.828h-61.793c-4.875,0-8.828-3.953-8.828-8.828V203.034z
	 M167.724,300.138c0-4.875,3.953-8.828,8.828-8.828h61.793c4.875,0,8.828,3.953,8.828,8.828v52.966c0,4.875-3.953,8.828-8.828,8.828
	h-61.793c-4.875,0-8.828-3.953-8.828-8.828V300.138z M176.552,388.414c9.751,0,17.655,7.905,17.655,17.655
	s-7.904,17.655-17.655,17.655s-17.655-7.905-17.655-17.655S166.801,388.414,176.552,388.414z"/>
<g>
	<path style="fill:#464655;" d="M229.517,44.138h52.966c4.875,0,8.828-3.953,8.828-8.828s-3.953-8.828-8.828-8.828h-52.966
		c-4.875,0-8.828,3.953-8.828,8.828S224.642,44.138,229.517,44.138z"/>
	<circle style="fill:#464655;" cx="194.207" cy="35.31" r="8.828"/>
	<circle style="fill:#464655;" cx="256" cy="476.69" r="17.655"/>
</g>
<path style="fill:#FFDC69;" d="M176.552,167.724h61.793c4.875,0,8.828-3.953,8.828-8.828v-52.966c0-4.875-3.953-8.828-8.828-8.828
	h-61.793c-4.875,0-8.828,3.953-8.828,8.828v52.966C167.724,163.772,171.677,167.724,176.552,167.724z"/>
<path style="fill:#BEC8DC;" d="M273.655,123.586h61.793c4.875,0,8.828-3.953,8.828-8.828c0-4.875-3.953-8.828-8.828-8.828h-61.793
	c-4.875,0-8.828,3.953-8.828,8.828C264.828,119.634,268.78,123.586,273.655,123.586z"/>
<path style="fill:#DEE3ED;" d="M273.655,158.897h35.31c4.875,0,8.828-3.953,8.828-8.828l0,0c0-4.875-3.953-8.828-8.828-8.828h-35.31
	c-4.875,0-8.828,3.953-8.828,8.828l0,0C264.828,154.944,268.78,158.897,273.655,158.897z"/>
<path style="fill:#BEC8DC;" d="M273.655,220.69h61.793c4.875,0,8.828-3.953,8.828-8.828l0,0c0-4.875-3.953-8.828-8.828-8.828
	h-61.793c-4.875,0-8.828,3.953-8.828,8.828l0,0C264.828,216.737,268.78,220.69,273.655,220.69z"/>
<path style="fill:#DEE3ED;" d="M273.655,256h35.31c4.875,0,8.828-3.953,8.828-8.828s-3.953-8.828-8.828-8.828h-35.31
	c-4.875,0-8.828,3.953-8.828,8.828S268.78,256,273.655,256z"/>
<path style="fill:#BEC8DC;" d="M273.655,317.793h61.793c4.875,0,8.828-3.953,8.828-8.828s-3.953-8.828-8.828-8.828h-61.793
	c-4.875,0-8.828,3.953-8.828,8.828S268.78,317.793,273.655,317.793z"/>
<path style="fill:#DEE3ED;" d="M273.655,353.103h35.31c4.875,0,8.828-3.953,8.828-8.828l0,0c0-4.875-3.953-8.828-8.828-8.828h-35.31
	c-4.875,0-8.828,3.953-8.828,8.828l0,0C264.828,349.151,268.78,353.103,273.655,353.103z"/>
<path style="fill:#B4E173;" d="M176.552,361.931h61.793c4.875,0,8.828-3.953,8.828-8.828v-52.966c0-4.875-3.953-8.828-8.828-8.828
	h-61.793c-4.875,0-8.828,3.953-8.828,8.828v52.966C167.724,357.978,171.677,361.931,176.552,361.931z"/>
<path style="fill:#FF6469;" d="M176.552,264.828h61.793c4.875,0,8.828-3.953,8.828-8.828v-52.966c0-4.875-3.953-8.828-8.828-8.828
	h-61.793c-4.875,0-8.828,3.953-8.828,8.828V256C167.724,260.875,171.677,264.828,176.552,264.828z"/>
<circle style="fill:#BEC8DC;" cx="229.517" cy="406.069" r="17.655"/>
<circle style="fill:#FFDC69;" cx="176.552" cy="406.069" r="17.655"/>
<g>
	<circle style="fill:#BEC8DC;" cx="335.448" cy="406.069" r="17.655"/>
	<circle style="fill:#BEC8DC;" cx="282.483" cy="406.069" r="17.655"/>
</g>
<g>
</g>
<g>
</g>
<g>
</g>
<g>
</g>
<g>
</g>
<g>
</g>
<g>
</g>
<g>
</g>
<g>
</g>
<g>
</g>
<g>
</g>
<g>
</g>
<g>
</g>
<g>
</g>
<g>
</g>
</svg>
